# xmcd CD database file
#
# Track frame offsets:
#	150
#	22720
#	41145
#	62442
#
# Disc length: 1235 seconds
#
# Revision: 0
# Processed by: cddbd v1.5.1PL0 Copyright (c) Steve Scherf et al.
# Submitted via: CDex 1.51
#
DISCID=2504d104
DTITLE=Cosa Nostra - Jolie
DYEAR=1900
DGENRE=JPop
TTITLE0=Jolie
TTITLE1=Jolie(Happy)
TTITLE2=Jolie(Nice)
TTITLE3=Jolie(Cool)
EXTD=
EXTT0=
EXTT1=
EXTT2=
EXTT3=
PLAYORDER=
